{
	"asset":{
		"generator":"Khronos glTF Blender I/O v4.2.60",
		"version":"2.0"
	},
	"extensionsUsed":[
		"KHR_materials_specular",
		"KHR_materials_ior"
	],
	"scene":0,
	"scenes":[
		{
			"name":"Scene",
			"nodes":[
				5,
				6,
				7,
				8,
				9,
				10,
				11
			]
		}
	],
	"nodes":[
		{
			"mesh":0,
			"name":"Sphere",
			"scale":[
				-0.0025179621297866106,
				-0.002517961896955967,
				-0.0025179623626172543
			],
			"translation":[
				-0.0028129222337156534,
				0.02112378180027008,
				0.03088560700416565
			]
		},
		{
			"mesh":1,
			"name":"Sphere.001",
			"scale":[
				-0.0033323399256914854,
				-0.003332339460030198,
				-0.0033323399256914854
			],
			"translation":[
				-0.03220655396580696,
				0.017207637429237366,
				0.021469898521900177
			]
		},
		{
			"mesh":2,
			"name":"Sphere.002",
			"scale":[
				-0.002860110253095627,
				-0.002860110020264983,
				-0.002860110253095627
			],
			"translation":[
				-0.0064960443414747715,
				0.015502153895795345,
				-0.014268813654780388
			]
		},
		{
			"mesh":3,
			"name":"Sphere.003",
			"scale":[
				-0.0032361492048949003,
				-0.0032361489720642567,
				-0.0032361492048949003
			],
			"translation":[
				0.013339824043214321,
				0.021120069548487663,
				-0.03126510977745056
			]
		},
		{
			"children":[
				0,
				1,
				2,
				3
			],
			"mesh":4,
			"name":"Icing",
			"translation":[
				-0.0007690804777666926,
				3.941950126318261e-05,
				-0.0004621757543645799
			]
		},
		{
			"children":[
				4
			],
			"mesh":5,
			"name":"Dough",
			"rotation":[
				0.29638543725013733,
				-0.3993808329105377,
				0.13820680975914001,
				0.8564750552177429
			]
		},
		{
			"mesh":6,
			"name":"Plane",
			"translation":[
				0,
				0.933285117149353,
				0
			]
		},
		{
			"mesh":7,
			"name":"Sprinkle",
			"translation":[
				0.17277918756008148,
				0.007807933259755373,
				0.07221809774637222
			]
		},
		{
			"mesh":8,
			"name":"Sprinkle.001",
			"translation":[
				0.17705583572387695,
				0.007807903457432985,
				0.07507283240556717
			]
		},
		{
			"mesh":9,
			"name":"Sprinkle.002",
			"translation":[
				0.18124420940876007,
				0.007807933259755373,
				0.07116854190826416
			]
		},
		{
			"mesh":10,
			"name":"Sprinkle.003",
			"translation":[
				0.18553532660007477,
				0.007807441055774689,
				0.07222562283277512
			]
		},
		{
			"mesh":11,
			"name":"Sprinkle.004",
			"translation":[
				0.19007329642772675,
				0.0078018405474722385,
				0.07171542942523956
			]
		}
	],
	"animations":[
		{
			"channels":[
				{
					"sampler":0,
					"target":{
						"node":5,
						"path":"translation"
					}
				},
				{
					"sampler":1,
					"target":{
						"node":5,
						"path":"rotation"
					}
				}
			],
			"name":"DoughAction",
			"samplers":[
				{
					"input":44,
					"interpolation":"STEP",
					"output":45
				},
				{
					"input":46,
					"interpolation":"LINEAR",
					"output":47
				}
			]
		}
	],
	"materials":[
		{
			"doubleSided":true,
			"name":"Material.005",
			"pbrMetallicRoughness":{
				"baseColorFactor":[
					0.004890404175966978,
					0.03689419478178024,
					0.8000000715255737,
					1
				],
				"metallicFactor":0,
				"roughnessFactor":0.32098764181137085
			}
		},
		{
			"doubleSided":true,
			"extensions":{
				"KHR_materials_specular":{
					"specularColorFactor":[
						1.5284974575042725,
						1.5284974575042725,
						1.5284974575042725
					]
				},
				"KHR_materials_ior":{
					"ior":1.4500000476837158
				}
			},
			"name":"Material.001",
			"pbrMetallicRoughness":{
				"baseColorFactor":[
					0.8000000715255737,
					0.17618300020694733,
					0.7095852494239807,
					1
				],
				"metallicFactor":0,
				"roughnessFactor":0.2512953281402588
			}
		},
		{
			"doubleSided":true,
			"name":"Material.002",
			"pbrMetallicRoughness":{
				"baseColorTexture":{
					"index":0
				},
				"metallicFactor":0,
				"roughnessFactor":0.5
			}
		},
		{
			"doubleSided":true,
			"name":"Material.004",
			"pbrMetallicRoughness":{
				"metallicFactor":0,
				"roughnessFactor":0.5
			}
		}
	],
	"meshes":[
		{
			"name":"Sphere",
			"primitives":[
				{
					"attributes":{
						"POSITION":0,
						"NORMAL":1,
						"TEXCOORD_0":2
					},
					"indices":3,
					"material":0
				}
			]
		},
		{
			"name":"Sphere.001",
			"primitives":[
				{
					"attributes":{
						"POSITION":4,
						"NORMAL":5,
						"TEXCOORD_0":6
					},
					"indices":3,
					"material":0
				}
			]
		},
		{
			"name":"Sphere.002",
			"primitives":[
				{
					"attributes":{
						"POSITION":7,
						"NORMAL":8,
						"TEXCOORD_0":9
					},
					"indices":3,
					"material":0
				}
			]
		},
		{
			"name":"Sphere.003",
			"primitives":[
				{
					"attributes":{
						"POSITION":10,
						"NORMAL":11,
						"TEXCOORD_0":12
					},
					"indices":3,
					"material":0
				}
			]
		},
		{
			"name":"Torus.002",
			"primitives":[
				{
					"attributes":{
						"POSITION":13,
						"NORMAL":14,
						"TEXCOORD_0":15
					},
					"indices":16,
					"material":1
				}
			]
		},
		{
			"name":"Torus",
			"primitives":[
				{
					"attributes":{
						"POSITION":17,
						"NORMAL":18,
						"TEXCOORD_0":19
					},
					"indices":20,
					"material":2
				}
			]
		},
		{
			"name":"Plane.001",
			"primitives":[
				{
					"attributes":{
						"POSITION":21,
						"NORMAL":22,
						"TEXCOORD_0":23
					},
					"indices":24
				}
			]
		},
		{
			"name":"Cylinder",
			"primitives":[
				{
					"attributes":{
						"POSITION":25,
						"NORMAL":26,
						"TEXCOORD_0":27
					},
					"indices":28,
					"material":3
				}
			]
		},
		{
			"name":"Cylinder.001",
			"primitives":[
				{
					"attributes":{
						"POSITION":29,
						"NORMAL":30,
						"TEXCOORD_0":31
					},
					"indices":32,
					"material":3
				}
			]
		},
		{
			"name":"Cylinder.002",
			"primitives":[
				{
					"attributes":{
						"POSITION":33,
						"NORMAL":34,
						"TEXCOORD_0":35
					},
					"indices":36,
					"material":3
				}
			]
		},
		{
			"name":"Cylinder.003",
			"primitives":[
				{
					"attributes":{
						"POSITION":37,
						"NORMAL":38,
						"TEXCOORD_0":39
					},
					"indices":40,
					"material":3
				}
			]
		},
		{
			"name":"Cylinder.004",
			"primitives":[
				{
					"attributes":{
						"POSITION":41,
						"NORMAL":42,
						"TEXCOORD_0":43
					},
					"indices":40,
					"material":3
				}
			]
		}
	],
	"textures":[
		{
			"sampler":0,
			"source":0
		}
	],
	"images":[
		{
			"mimeType":"image/png",
			"name":"Doughnut_Base",
			"uri":"Doughnut_Base.png"
		}
	],
	"accessors":[
		{
			"bufferView":0,
			"componentType":5126,
			"count":559,
			"max":[
				0.9999997019767761,
				1,
				0.9999994039535522
			],
			"min":[
				-0.9999990463256836,
				-1,
				-0.9999987483024597
			],
			"type":"VEC3"
		},
		{
			"bufferView":1,
			"componentType":5126,
			"count":559,
			"type":"VEC3"
		},
		{
			"bufferView":2,
			"componentType":5126,
			"count":559,
			"type":"VEC2"
		},
		{
			"bufferView":3,
			"componentType":5123,
			"count":2880,
			"type":"SCALAR"
		},
		{
			"bufferView":4,
			"componentType":5126,
			"count":559,
			"max":[
				0.9999997019767761,
				1,
				0.9999994039535522
			],
			"min":[
				-0.9999990463256836,
				-1,
				-0.9999987483024597
			],
			"type":"VEC3"
		},
		{
			"bufferView":5,
			"componentType":5126,
			"count":559,
			"type":"VEC3"
		},
		{
			"bufferView":6,
			"componentType":5126,
			"count":559,
			"type":"VEC2"
		},
		{
			"bufferView":7,
			"componentType":5126,
			"count":559,
			"max":[
				0.9999997019767761,
				1,
				0.9999994039535522
			],
			"min":[
				-0.9999990463256836,
				-1,
				-0.9999987483024597
			],
			"type":"VEC3"
		},
		{
			"bufferView":8,
			"componentType":5126,
			"count":559,
			"type":"VEC3"
		},
		{
			"bufferView":9,
			"componentType":5126,
			"count":559,
			"type":"VEC2"
		},
		{
			"bufferView":10,
			"componentType":5126,
			"count":559,
			"max":[
				0.9999997019767761,
				1,
				0.9999994039535522
			],
			"min":[
				-0.9999990463256836,
				-1,
				-0.9999987483024597
			],
			"type":"VEC3"
		},
		{
			"bufferView":11,
			"componentType":5126,
			"count":559,
			"type":"VEC3"
		},
		{
			"bufferView":12,
			"componentType":5126,
			"count":559,
			"type":"VEC2"
		},
		{
			"bufferView":13,
			"componentType":5126,
			"count":11761,
			"max":[
				0.05045510455965996,
				0.02119210921227932,
				0.049940016120672226
			],
			"min":[
				-0.04955560714006424,
				-0.01598851941525936,
				-0.05009450763463974
			],
			"type":"VEC3"
		},
		{
			"bufferView":14,
			"componentType":5126,
			"count":11761,
			"type":"VEC3"
		},
		{
			"bufferView":15,
			"componentType":5126,
			"count":11761,
			"type":"VEC2"
		},
		{
			"bufferView":16,
			"componentType":5123,
			"count":66144,
			"type":"SCALAR"
		},
		{
			"bufferView":17,
			"componentType":5126,
			"count":2831,
			"max":[
				0.04751953110098839,
				0.02002638205885887,
				0.0486084520816803
			],
			"min":[
				-0.048193804919719696,
				-0.019546275958418846,
				-0.04844018071889877
			],
			"type":"VEC3"
		},
		{
			"bufferView":18,
			"componentType":5126,
			"count":2831,
			"type":"VEC3"
		},
		{
			"bufferView":19,
			"componentType":5126,
			"count":2831,
			"type":"VEC2"
		},
		{
			"bufferView":20,
			"componentType":5123,
			"count":15360,
			"type":"SCALAR"
		},
		{
			"bufferView":21,
			"componentType":5126,
			"count":4,
			"max":[
				1,
				0,
				1
			],
			"min":[
				-1,
				0,
				-1
			],
			"type":"VEC3"
		},
		{
			"bufferView":22,
			"componentType":5126,
			"count":4,
			"type":"VEC3"
		},
		{
			"bufferView":23,
			"componentType":5126,
			"count":4,
			"type":"VEC2"
		},
		{
			"bufferView":24,
			"componentType":5123,
			"count":6,
			"type":"SCALAR"
		},
		{
			"bufferView":25,
			"componentType":5126,
			"count":52,
			"max":[
				0.0009054900147020817,
				0.0009054909460246563,
				0.0031397792045027018
			],
			"min":[
				-0.0009054911788553,
				-0.0009054909460246563,
				-0.0031542633660137653
			],
			"type":"VEC3"
		},
		{
			"bufferView":26,
			"componentType":5126,
			"count":52,
			"type":"VEC3"
		},
		{
			"bufferView":27,
			"componentType":5126,
			"count":52,
			"type":"VEC2"
		},
		{
			"bufferView":28,
			"componentType":5123,
			"count":180,
			"type":"SCALAR"
		},
		{
			"bufferView":29,
			"componentType":5126,
			"count":70,
			"max":[
				0.0011807859409600496,
				0.0009055397822521627,
				0.003851075889542699
			],
			"min":[
				-0.0011539773549884558,
				-0.0009056396083906293,
				-0.005478273145854473
			],
			"type":"VEC3"
		},
		{
			"bufferView":30,
			"componentType":5126,
			"count":70,
			"type":"VEC3"
		},
		{
			"bufferView":31,
			"componentType":5126,
			"count":70,
			"type":"VEC2"
		},
		{
			"bufferView":32,
			"componentType":5123,
			"count":228,
			"type":"SCALAR"
		},
		{
			"bufferView":33,
			"componentType":5126,
			"count":61,
			"max":[
				0.0009054907131940126,
				0.0009054910624399781,
				0.0012960087042301893
			],
			"min":[
				-0.0009054907131940126,
				-0.0009054908878169954,
				-0.0018348153680562973
			],
			"type":"VEC3"
		},
		{
			"bufferView":34,
			"componentType":5126,
			"count":61,
			"type":"VEC3"
		},
		{
			"bufferView":35,
			"componentType":5126,
			"count":61,
			"type":"VEC2"
		},
		{
			"bufferView":36,
			"componentType":5123,
			"count":180,
			"type":"SCALAR"
		},
		{
			"bufferView":37,
			"componentType":5126,
			"count":70,
			"max":[
				0.0013428287347778678,
				0.0009074170957319438,
				0.0033608986996114254
			],
			"min":[
				-0.0011046180734410882,
				-0.0009093748521991074,
				-0.003299545729532838
			],
			"type":"VEC3"
		},
		{
			"bufferView":38,
			"componentType":5126,
			"count":70,
			"type":"VEC3"
		},
		{
			"bufferView":39,
			"componentType":5126,
			"count":70,
			"type":"VEC2"
		},
		{
			"bufferView":40,
			"componentType":5123,
			"count":276,
			"type":"SCALAR"
		},
		{
			"bufferView":41,
			"componentType":5126,
			"count":70,
			"max":[
				0.0011784215457737446,
				0.000912079238332808,
				0.002915268065407872
			],
			"min":[
				-0.0010820473544299603,
				-0.0009123099152930081,
				-0.002900537336245179
			],
			"type":"VEC3"
		},
		{
			"bufferView":42,
			"componentType":5126,
			"count":70,
			"type":"VEC3"
		},
		{
			"bufferView":43,
			"componentType":5126,
			"count":70,
			"type":"VEC2"
		},
		{
			"bufferView":44,
			"componentType":5126,
			"count":2,
			"max":[
				2.4
			],
			"min":[
				0
			],
			"type":"SCALAR"
		},
		{
			"bufferView":45,
			"componentType":5126,
			"count":2,
			"type":"VEC3"
		},
		{
			"bufferView":46,
			"componentType":5126,
			"count":73,
			"max":[
				2.4
			],
			"min":[
				0
			],
			"type":"SCALAR"
		},
		{
			"bufferView":47,
			"componentType":5126,
			"count":73,
			"type":"VEC4"
		}
	],
	"bufferViews":[
		{
			"buffer":0,
			"byteLength":6708,
			"byteOffset":0,
			"target":34962
		},
		{
			"buffer":0,
			"byteLength":6708,
			"byteOffset":6708,
			"target":34962
		},
		{
			"buffer":0,
			"byteLength":4472,
			"byteOffset":13416,
			"target":34962
		},
		{
			"buffer":0,
			"byteLength":5760,
			"byteOffset":17888,
			"target":34963
		},
		{
			"buffer":0,
			"byteLength":6708,
			"byteOffset":23648,
			"target":34962
		},
		{
			"buffer":0,
			"byteLength":6708,
			"byteOffset":30356,
			"target":34962
		},
		{
			"buffer":0,
			"byteLength":4472,
			"byteOffset":37064,
			"target":34962
		},
		{
			"buffer":0,
			"byteLength":6708,
			"byteOffset":41536,
			"target":34962
		},
		{
			"buffer":0,
			"byteLength":6708,
			"byteOffset":48244,
			"target":34962
		},
		{
			"buffer":0,
			"byteLength":4472,
			"byteOffset":54952,
			"target":34962
		},
		{
			"buffer":0,
			"byteLength":6708,
			"byteOffset":59424,
			"target":34962
		},
		{
			"buffer":0,
			"byteLength":6708,
			"byteOffset":66132,
			"target":34962
		},
		{
			"buffer":0,
			"byteLength":4472,
			"byteOffset":72840,
			"target":34962
		},
		{
			"buffer":0,
			"byteLength":141132,
			"byteOffset":77312,
			"target":34962
		},
		{
			"buffer":0,
			"byteLength":141132,
			"byteOffset":218444,
			"target":34962
		},
		{
			"buffer":0,
			"byteLength":94088,
			"byteOffset":359576,
			"target":34962
		},
		{
			"buffer":0,
			"byteLength":132288,
			"byteOffset":453664,
			"target":34963
		},
		{
			"buffer":0,
			"byteLength":33972,
			"byteOffset":585952,
			"target":34962
		},
		{
			"buffer":0,
			"byteLength":33972,
			"byteOffset":619924,
			"target":34962
		},
		{
			"buffer":0,
			"byteLength":22648,
			"byteOffset":653896,
			"target":34962
		},
		{
			"buffer":0,
			"byteLength":30720,
			"byteOffset":676544,
			"target":34963
		},
		{
			"buffer":0,
			"byteLength":48,
			"byteOffset":707264,
			"target":34962
		},
		{
			"buffer":0,
			"byteLength":48,
			"byteOffset":707312,
			"target":34962
		},
		{
			"buffer":0,
			"byteLength":32,
			"byteOffset":707360,
			"target":34962
		},
		{
			"buffer":0,
			"byteLength":12,
			"byteOffset":707392,
			"target":34963
		},
		{
			"buffer":0,
			"byteLength":624,
			"byteOffset":707404,
			"target":34962
		},
		{
			"buffer":0,
			"byteLength":624,
			"byteOffset":708028,
			"target":34962
		},
		{
			"buffer":0,
			"byteLength":416,
			"byteOffset":708652,
			"target":34962
		},
		{
			"buffer":0,
			"byteLength":360,
			"byteOffset":709068,
			"target":34963
		},
		{
			"buffer":0,
			"byteLength":840,
			"byteOffset":709428,
			"target":34962
		},
		{
			"buffer":0,
			"byteLength":840,
			"byteOffset":710268,
			"target":34962
		},
		{
			"buffer":0,
			"byteLength":560,
			"byteOffset":711108,
			"target":34962
		},
		{
			"buffer":0,
			"byteLength":456,
			"byteOffset":711668,
			"target":34963
		},
		{
			"buffer":0,
			"byteLength":732,
			"byteOffset":712124,
			"target":34962
		},
		{
			"buffer":0,
			"byteLength":732,
			"byteOffset":712856,
			"target":34962
		},
		{
			"buffer":0,
			"byteLength":488,
			"byteOffset":713588,
			"target":34962
		},
		{
			"buffer":0,
			"byteLength":360,
			"byteOffset":714076,
			"target":34963
		},
		{
			"buffer":0,
			"byteLength":840,
			"byteOffset":714436,
			"target":34962
		},
		{
			"buffer":0,
			"byteLength":840,
			"byteOffset":715276,
			"target":34962
		},
		{
			"buffer":0,
			"byteLength":560,
			"byteOffset":716116,
			"target":34962
		},
		{
			"buffer":0,
			"byteLength":552,
			"byteOffset":716676,
			"target":34963
		},
		{
			"buffer":0,
			"byteLength":840,
			"byteOffset":717228,
			"target":34962
		},
		{
			"buffer":0,
			"byteLength":840,
			"byteOffset":718068,
			"target":34962
		},
		{
			"buffer":0,
			"byteLength":560,
			"byteOffset":718908,
			"target":34962
		},
		{
			"buffer":0,
			"byteLength":8,
			"byteOffset":719468
		},
		{
			"buffer":0,
			"byteLength":24,
			"byteOffset":719476
		},
		{
			"buffer":0,
			"byteLength":292,
			"byteOffset":719500
		},
		{
			"buffer":0,
			"byteLength":1168,
			"byteOffset":719792
		}
	],
	"samplers":[
		{
			"magFilter":9729,
			"minFilter":9987
		}
	],
	"buffers":[
		{
			"byteLength":720960,
			"uri":"Doughnut_Blender3.1.bin"
		}
	]
}
