<svg width="290" height="147" viewBox="0 0 290 147" fill="none" xmlns="http://www.w3.org/2000/svg">
<g id="Group 6">
<g id="arrow">
<g id="Vector 5">
<path d="M172.381 81.2005C174.018 80.1588 175.368 78.7117 176.861 77.4842C181.265 73.8631 186.006 70.6649 191.115 68.1172C206.886 60.2536 226.427 54.7981 243.652 60.9392C250.54 63.3948 257.288 67.5255 260.859 74.1243C264.119 80.1487 265.029 87.576 265.721 94.2838C266.47 101.551 266.647 108.784 267.681 116.021" stroke="#F7F7F7" stroke-width="6" stroke-linecap="round"/>
<path d="M172.381 81.2005C174.018 80.1588 175.368 78.7117 176.861 77.4842C181.265 73.8631 186.006 70.6649 191.115 68.1172C206.886 60.2536 226.427 54.7981 243.652 60.9392C250.54 63.3948 257.288 67.5255 260.859 74.1243C264.119 80.1487 265.029 87.576 265.721 94.2838C266.47 101.551 266.647 108.784 267.681 116.021" stroke="black" stroke-opacity="0.2" stroke-width="6" stroke-linecap="round"/>
</g>
<g id="Vector 6">
<path d="M250.492 103.872C250.492 112.381 252.761 119.731 256.55 127.392C258.602 131.539 267.22 148.777 274.215 142.46C277.274 139.698 278.903 135.051 280.273 131.312C282.117 126.279 283.534 121.075 284.651 115.836C285.344 112.587 286.229 109.06 286.229 105.705" stroke="#F7F7F7" stroke-width="6" stroke-linecap="round"/>
<path d="M250.492 103.872C250.492 112.381 252.761 119.731 256.55 127.392C258.602 131.539 267.22 148.777 274.215 142.46C277.274 139.698 278.903 135.051 280.273 131.312C282.117 126.279 283.534 121.075 284.651 115.836C285.344 112.587 286.229 109.06 286.229 105.705" stroke="black" stroke-opacity="0.2" stroke-width="6" stroke-linecap="round"/>
</g>
</g>
<g id="down">
<g id="d">
<g id="Vector 7">
<path d="M30.842 19.7944C31.0334 33.2365 27.9551 46.7693 25.591 59.901" stroke="#F7F7F7" stroke-width="6" stroke-linecap="round"/>
<path d="M30.842 19.7944C31.0334 33.2365 27.9551 46.7693 25.591 59.901" stroke="black" stroke-opacity="0.2" stroke-width="6" stroke-linecap="round"/>
</g>
<g id="Vector 8">
<path d="M18.073 10.2245C22.9117 5.38027 29.0278 5.88899 35.0738 8.56674C49.7412 15.0628 59.5304 31.5605 58.4359 47.538C57.5598 60.3285 45.6103 80.211 30.3231 76.7008C20.6082 74.4702 12.697 66.892 3.27055 63.558" stroke="#F7F7F7" stroke-width="6" stroke-linecap="round"/>
<path d="M18.073 10.2245C22.9117 5.38027 29.0278 5.88899 35.0738 8.56674C49.7412 15.0628 59.5304 31.5605 58.4359 47.538C57.5598 60.3285 45.6103 80.211 30.3231 76.7008C20.6082 74.4702 12.697 66.892 3.27055 63.558" stroke="black" stroke-opacity="0.2" stroke-width="6" stroke-linecap="round"/>
</g>
</g>
<g id="o">
<path d="M85.6782 36.8287C85.1635 35.7867 82.9127 36.0678 82.0612 36.2112C76.6951 37.115 72.6954 42.0781 69.8354 46.3112C66.6572 51.0155 57.3634 70.7203 71.0706 67.9657C79.6869 66.2342 91.2421 57.5005 92.2505 48.1276C93.2177 39.138 83.8515 37.391 77.0173 38.0972" stroke="#F7F7F7" stroke-width="6" stroke-linecap="round"/>
<path d="M85.6782 36.8287C85.1635 35.7867 82.9127 36.0678 82.0612 36.2112C76.6951 37.115 72.6954 42.0781 69.8354 46.3112C66.6572 51.0155 57.3634 70.7203 71.0706 67.9657C79.6869 66.2342 91.2421 57.5005 92.2505 48.1276C93.2177 39.138 83.8515 37.391 77.0173 38.0972" stroke="black" stroke-opacity="0.2" stroke-width="6" stroke-linecap="round"/>
</g>
<g id="w">
<path d="M101.983 37.6538C101.909 35.8214 102.058 41.3225 102.002 43.1556C101.742 51.7092 100.172 60.662 101.072 69.2031C101.3 71.3703 102.062 69.183 102.318 68.5157C103.422 65.6381 104.246 62.691 105.638 59.9234C106.647 57.9157 109.259 52.9357 109.879 57.7133C110.591 63.2062 110.145 68.8062 110.857 74.2832C111.215 77.0379 116.524 66.5891 116.838 65.9905C122.676 54.8584 129.49 44.2371 135.272 33.0934" stroke="#F7F7F7" stroke-width="6" stroke-linecap="round"/>
<path d="M101.983 37.6538C101.909 35.8214 102.058 41.3225 102.002 43.1556C101.742 51.7092 100.172 60.662 101.072 69.2031C101.3 71.3703 102.062 69.183 102.318 68.5157C103.422 65.6381 104.246 62.691 105.638 59.9234C106.647 57.9157 109.259 52.9357 109.879 57.7133C110.591 63.2062 110.145 68.8062 110.857 74.2832C111.215 77.0379 116.524 66.5891 116.838 65.9905C122.676 54.8584 129.49 44.2371 135.272 33.0934" stroke="black" stroke-opacity="0.2" stroke-width="6" stroke-linecap="round"/>
</g>
<g id="n">
<path d="M144.753 37.6417C144.57 33.1385 144.026 46.6308 143.414 51.0958C143.244 52.3326 141.376 71.7621 141.195 71.7694C140.816 71.7848 143.701 54.7627 143.862 53.9817C144.907 48.9061 146.051 43.8197 148.718 39.315C149.615 37.8014 151.483 34.3444 153.466 33.9C157.533 32.9889 157.464 59.2295 157.52 60.9682C157.709 66.8353 157.67 72.7416 158.158 78.5963C158.449 82.0799 159.145 81.0432 160.453 78.6306C166.581 67.3246 172.097 55.6103 177.723 44.0484C182.018 35.2209 185.786 26.3684 188.855 17.052" stroke="#F7F7F7" stroke-width="6" stroke-linecap="round"/>
<path d="M144.753 37.6417C144.57 33.1385 144.026 46.6308 143.414 51.0958C143.244 52.3326 141.376 71.7621 141.195 71.7694C140.816 71.7848 143.701 54.7627 143.862 53.9817C144.907 48.9061 146.051 43.8197 148.718 39.315C149.615 37.8014 151.483 34.3444 153.466 33.9C157.533 32.9889 157.464 59.2295 157.52 60.9682C157.709 66.8353 157.67 72.7416 158.158 78.5963C158.449 82.0799 159.145 81.0432 160.453 78.6306C166.581 67.3246 172.097 55.6103 177.723 44.0484C182.018 35.2209 185.786 26.3684 188.855 17.052" stroke="black" stroke-opacity="0.2" stroke-width="6" stroke-linecap="round"/>
</g>
</g>
</g>
</svg>
